<?xml version="1.0" encoding="UTF-8"?>
<svg viewBox="0 0 39.6875 39.6875" xmlns="http://www.w3.org/2000/svg"><title/>
  <path d="m0 0h39.6875v39.6875h-39.6875z" style="fill: rgb(56, 56, 56);" transform="matrix(1, 0, 0, 1, -4.440892098500626e-16, -4.440892098500626e-16)"/>
  <g fill="#bebebe" transform="matrix(1, 0, 0, 1, -4.440892098500626e-16, -4.440892098500626e-16)">
    <path d="m1.1875 0c-.0668225.09913567-.1403779.21868439-.23242188.37890625-.26294173.45773858-.68212844 1.01982675-.92968749 1.24999995-.0097373.009049-.01606994.0166802-.02539063.0253907v5.515625h.08789063c.55559055 0 2.16047157-.5631979 2.62890627-.921875.2619212-.2006929.2718291-.3862552.0957031-1.8671875l-.1953125-1.6445313-.6582031.6914063c-.3613985.3798463-.7079883.6377148-.7714844.5742187-.0634961-.0635338.0636126-.3070628.2832031-.5410156.3722835-.3961701.3911709-.5161265.2792969-1.7695313-.0787721-.88182793-.1325283-1.41883438-.203125-1.6914062zm2.1230469 0c-.1183075.70260013-.1689701 1.4915517-.1699219 2.4199219-.0037039 3.2584857.8494058 5.7321805 2.5722656 7.4550781 1.8742299 1.87423 4.5001064 1.821027 6.7285154-.1347656 1.099729-.9652536.432114.0103915-.996094 1.4550776-2.5746137 2.604322-5.4857747 4.073983-9.2929682 4.691407-.915161.148331-1.53369949.221783-2.1523438.228515v3.472657c8.4870778-.026842 16.025293-5.477796 18.650391-13.5195316.634045-1.9423439.945228-4.0013684.941406-6.0683594h-3.623047c.003331 1.0630986-.044252 2.097599-.146484 2.5917969-.109985.5317795-.148945.5845471-.164063.2285156-.035074-.8163402-.713634-1.250619-2.380859-1.5253906-.93498-.1540536-2.753062.0248234-3.6191409.3574219l-.4960937.1914062.6738281.234375c1.0005545.3468472 1.1715605.7402648.7089845 1.6347656-.5913828 1.1436133-1.8603594 1.3977323-2.6679689.5332032-.7693191-.8235652-1.2592851-2.6675925-1.3300781-4.2460938zm3.5625 0c-.0522939.43043556.0107719.95550217.1914062 1.5546875l.2089844.6894531.7929687-1.1210937c.2945861-.41562419.5341719-.77990946.7421876-1.1230469zm-6.8730469 7.515625v3.300781c.73895652-.422728 1.2435532-1.6565886 1.0195312-2.7773435-.09955271-.4977638-.14766872-.5234375-.94726557-.5234375z" stroke-width=".172728" transform="scale(.26458333)" style="fill: rgb(65, 65, 65);"/>
    <path d="m8.9848766 15.038728c-2.42499-.43925-4.24067-2.62027-4.24708-5.1016505-.003-1.292739.52293-2.6275386 1.4043-3.5618286.78673-.833991 1.80268-1.385331 2.90575-1.576921.61631-.10705 1.5966904-.0672 2.1912804.0891 1.58933.41773 2.87435 1.549701 3.48866 3.073151.4548 1.1278886.50154 2.4245381.12858 3.5670691-.70043 2.1457-2.72241 3.59507-4.9911504 3.57769-.29445-.002-.69061-.0322-.88034-.0666zm1.5065404-.91349c1.00732-.16336 1.77728-.55207 2.45848-1.24113.37788-.38224.55477-.64045.2638-.38506-.5896.51747-1.28452.53129-1.78041.0354-.45584-.45585-.68166-1.11016-.68068-1.972301.00086-.8388495.15591-1.2567695.64872-1.7495785.73155-.7315496 1.39765-.4521996 1.12859.473309-.0996.34245-.21179.56353-.47367.9330095l-.21019.29655-.0549-.1823c-.0777-.25774-.0738-.4645195.0112-.5941795.16234-.24776.16329-.61861.001-.48412-.28195.234-.14823 1.4145695.20279 1.7903405.21368.22874.5492.16181.70567-.140771.12239-.23667.0771-.34118-.18763-.43295l-.17824-.0618.1312-.0504c.22915-.088.71027-.13576.95765-.095.44112.0727.62092.18797.6302.40396.004.0942.014.0803.0431-.0604.0543-.26249.0514-1.1017895-.005-1.4197595-.21599-1.2193986-.9987-2.3402286-2.06528-2.9574286-.38361-.22198-1.03293-.45577-1.40568-.506101l-.20565-.0278.23861.101931c.60557.25868.90212.64551.90327 1.17827.00052.2564-.0248.35097-.17666.65817-.32641.66045-1.07839 1.2829496-1.8492104 1.5307986l-.3097.0996-.46943-.27714c-.25819-.152429-.47491-.277139-.48162-.277139-.007 0-.0502.0874-.0966.19423-.0465.106829-.0887.200799-.0939.208839-.0253.0391-.38703-.18698-.47198-.294969-.13782-.17521-.15862-.3059596-.0746-.4685496.16112-.31156.85159-.50323 1.59078-.4416.21994.0183.39989.0503.39989.071 0 .0208-.0954.12173-.21209.2244-.18865.16606-.23789.18677-.44559.18737-.37288.001-.63404.18857-.30621.2198396.0857.008.24795-.0203.36061-.0634.26046-.0995.86314-.66428.97231-.91122.1573504-.35592-.0184-.61697-.4153-.61697-.28032 0-.34034.0701-.30385.35482l.0277.21644-.24523-.25966c-.29726-.31475-.48023-.67283-.51476-1.00741-.0256-.24815-.0249-.25002.14226-.35331.25375-.15682.16566-.16147-.20949-.011-1.35232.54226-2.31279 1.68879-2.60747 3.1125986-.12783.61766-.0969 1.4573699.075 2.0340609.1214.40737.24348.69285.17749.41506-.0563-.23692-.0289-.767301.0489-.946601.10082-.23238.32748-.48065.5359-.5869799.31923-.16286.97617-.19184 1.4802-.0653.41628.1045099 1.077.4668199 1.45241.7964299l.16998.14924v.520831.52083h.22279c.2115604 0 .2242004.007.2505404.1387.0729.36471-.14565.77532-.4127604.77532-.40028 0-1.00183-.66579-1.29037-1.42816-.057-.15053-.0515-.1511.30264-.0315.21512.0726.28501.11883.30592.20213.0361.14369.28603.38923.39625.38923.11367 0 .11078-.0442-.0149-.22915-.20174-.29677-.92718-.59347-1.45105-.59347-.18902 0-.25468.0221-.35034.11773-.10124.10123-.11449.14646-.0946.32275.0249.22126.17576.42784.31236.42784.044 0 .14633-.0559.22748-.12416l.14756-.12415-.0329.18128c-.0764.42034-.36081.89148-.67612 1.1199-.17542.12707-.18873.12966-.31945.062-.24473-.12655-.18465-.0337.1326.20501.56736.42683 1.32035.73196 2.03595.82499.44144.0574.6170204.0539 1.0816004-.0214zm-.6817004-2.98385c0-.671291.001-.678571.11912-.788341.0655-.0609.1760404-.20989.2456104-.331.14802-.2576595.1579-.2413395.2105.3475.0296.33163.0246.36343-.0739.46825-.0581.0619-.0919.126211-.0751.143021.0168.0168.1088-.0517.20442-.152201l.17386-.18276.0517.435161c.0466.39183.0441.44104-.0252.49414-.12394.0949-.54866.24378-.6956604.24378h-.13539zm-.38605-1.000001c-.43485-.1846895-.46794-.2096895-.50582-.3821495-.0162-.0737-.0483-.13395-.0715-.13395-.0568 0-.0534.0394.026.30122.0374.1233895.0683.2311595.0686.2394995.00035.008-.0709-.029-.15825-.083-.0873-.054-.26725-.1362095-.39988-.1827795-.24024-.0844-.24119-.0855-.25516-.29631-.0138-.20755.0945-.683639.16545-.727469.0198-.0122.28841.125539.59692.306149.55742.32635.56158.33004.66693.5918.0583.14487.14068.3163195.18306.3809995.0424.0647.0703.12269.062.12891-.008.006-.17851-.0581-.37827-.14296zm.6640904-.4887495-.3389204-.0506.3462304-.26059c.32279-.24296.35644-.25767.49703-.21735.0829.0238.16818.0259.18942.005.0347-.0347-.20923-.11888-.44469-.15357-.0693-.0102-.0373-.0469.13974-.160559.12628-.081.27826-.19914.33775-.2624596.13398-.14262.15168-.14254.39813.002l.19969.1170296-.17439.19812c-.0959.108969-.23306.308229-.30476.442809-.14773.2773-.28149.40525-.41491.39688-.0503-.003-.24391-.0285-.43032-.0563z" stroke-width=".045701" style="fill: rgb(65, 65, 65);"/>
    <path d="m18.906752 24.960603c-2.42499-.43925-4.24067-2.62027-4.24708-5.101651-.003-1.292739.52293-2.627538 1.4043-3.561828.78673-.833991 1.80268-1.385331 2.90575-1.576921.61631-.10705 1.59669-.0672 2.19128.0891 1.58933.41773 2.87435 1.549701 3.48866 3.073151.4548 1.127888.50154 2.424538.12858 3.567069-.70043 2.1457-2.72241 3.59507-4.99115 3.57769-.29445-.002-.69061-.0322-.88034-.0666zm1.50654-.91349c1.00732-.16336 1.77728-.55207 2.45848-1.24113.37788-.38224.55477-.64045.2638-.38506-.5896.51747-1.28452.53129-1.78041.0354-.45584-.45585-.68166-1.11016-.68068-1.972301.00086-.83885.15591-1.25677.64872-1.749579.73155-.731549 1.39765-.452199 1.12859.473309-.0996.34245-.21179.56353-.47367.93301l-.21019.29655-.0549-.1823c-.0777-.25774-.0738-.46452.0112-.59418.16234-.24776.16329-.61861.001-.48412-.28195.234-.14823 1.41457.20279 1.790341.21368.22874.5492.16181.70567-.140771.12239-.23667.0771-.34118-.18763-.43295l-.17824-.0618.1312-.0504c.22915-.088.71027-.13576.95765-.095.44112.0727.62092.18797.6302.40396.004.0942.014.0803.0431-.0604.0543-.26249.0514-1.10179-.005-1.41976-.21599-1.219398-.9987-2.340228-2.06528-2.957428-.38361-.22198-1.03293-.45577-1.40568-.506101l-.20565-.0278.23861.101931c.60557.25868.90212.64551.90327 1.17827.00052.2564-.0248.35097-.17666.65817-.32641.66045-1.07839 1.282949-1.84921 1.530798l-.3097.0996-.46943-.27714c-.25819-.152429-.47491-.277139-.48162-.277139-.007 0-.0502.0874-.0966.19423-.0465.106829-.0887.200799-.0939.208839-.0253.0391-.38703-.18698-.47198-.294969-.13782-.17521-.15862-.305959-.0746-.468549.16112-.31156.85159-.50323 1.59078-.4416.21994.0183.39989.0503.39989.071 0 .0208-.0954.12173-.21209.2244-.18865.16606-.23789.18677-.44559.18737-.37288.001-.63404.18857-.30621.219839.0857.008.24795-.0203.36061-.0634.26046-.0995.86314-.66428.97231-.91122.15735-.35592-.0184-.61697-.4153-.61697-.28032 0-.34034.0701-.30385.35482l.0277.21644-.24523-.25966c-.29726-.31475-.48023-.67283-.51476-1.00741-.0256-.24815-.0249-.25002.14226-.35331.25375-.15682.16566-.16147-.20949-.011-1.35232.54226-2.31279 1.68879-2.60747 3.112599-.12783.61766-.0969 1.45737.075 2.034061.1214.40737.24348.69285.17749.41506-.0563-.23692-.0289-.767301.0489-.946601.10082-.23238.32748-.48065.5359-.58698.31923-.16286.97617-.19184 1.4802-.0653.41628.10451 1.077.46682 1.45241.79643l.16998.14924v.520831.52083h.22279c.21156 0 .2242.007.25054.1387.0729.36471-.14565.77532-.41276.77532-.40028 0-1.00183-.66579-1.29037-1.42816-.057-.15053-.0515-.1511.30264-.0315.21512.0726.28501.11883.30592.20213.0361.14369.28603.38923.39625.38923.11367 0 .11078-.0442-.0149-.22915-.20174-.29677-.92718-.59347-1.45105-.59347-.18902 0-.25468.0221-.35034.11773-.10124.10123-.11449.14646-.0946.32275.0249.22126.17576.42784.31236.42784.044 0 .14633-.0559.22748-.12416l.14756-.12415-.0329.18128c-.0764.42034-.36081.89148-.67612 1.1199-.17542.12707-.18873.12966-.31945.062-.24473-.12655-.18465-.0337.1326.20501.56736.42683 1.32035.73196 2.03595.82499.44144.0574.61702.0539 1.0816-.0214zm-.6817-2.98385c0-.671291.001-.678571.11912-.788341.0655-.0609.17604-.20989.24561-.331.14802-.25766.1579-.24134.2105.3475.0296.33163.0246.36343-.0739.46825-.0581.0619-.0919.126211-.0751.143021.0168.0168.1088-.0517.20442-.152201l.17386-.18276.0517.435161c.0466.39183.0441.44104-.0252.49414-.12394.0949-.54866.24378-.69566.24378h-.13539zm-.38605-1.000001c-.43485-.18469-.46794-.20969-.50582-.38215-.0162-.0737-.0483-.13395-.0715-.13395-.0568 0-.0534.0394.026.30122.0374.12339.0683.23116.0686.2395.00035.008-.0709-.029-.15825-.083-.0873-.054-.26725-.13621-.39988-.18278-.24024-.0844-.24119-.0855-.25516-.29631-.0138-.20755.0945-.683639.16545-.727469.0198-.0122.28841.125539.59692.306149.55742.32635.56158.33004.66693.5918.0583.14487.14068.31632.18306.381.0424.0647.0703.12269.062.12891-.008.006-.17851-.0581-.37827-.14296zm.66409-.48875-.33892-.0506.34623-.26059c.32279-.24296.35644-.25767.49703-.21735.0829.0238.16818.0259.18942.005.0347-.0347-.20923-.11888-.44469-.15357-.0693-.0102-.0373-.0469.13974-.160559.12628-.081.27826-.19914.33775-.262459.13398-.14262.15168-.14254.39813.002l.19969.117029-.17439.19812c-.0959.108969-.23306.308229-.30476.442809-.14773.2773-.28149.40525-.41491.39688-.0503-.003-.24391-.0285-.43032-.0563z" stroke-width=".045701" style="fill: rgb(65, 65, 65);"/>
    <path d="m28.828627 34.882478c-2.42499-.439249-4.24067-2.62027-4.24708-5.101651-.003-1.292739.52293-2.627538 1.4043-3.561828.78673-.833991 1.80268-1.385331 2.90575-1.576921.61631-.10705 1.59669-.0672 2.19128.0891 1.58933.41773 2.87435 1.549701 3.48866 3.073151.4548 1.127888.50154 2.424538.12858 3.56707-.70043 2.1457-2.72241 3.59507-4.99115 3.57769-.29445-.002-.69061-.0322-.88034-.0666zm1.50654-.913489c1.00732-.163361 1.77728-.55207 2.45848-1.241131.37788-.38224.55477-.640449.2638-.38506-.5896.51747-1.28452.53129-1.78041.0354-.45584-.45585-.68166-1.11016-.68068-1.972301.00086-.83885.15591-1.25677.64872-1.749579.73155-.731549 1.39765-.452199 1.12859.473309-.0996.34245-.21179.56353-.47367.93301l-.21019.29655-.0549-.1823c-.0777-.25774-.0738-.46452.0112-.59418.16234-.24776.16329-.61861.001-.48412-.28195.234-.14823 1.41457.20279 1.790341.21368.22874.5492.161811.70567-.140771.12239-.23667.0771-.34118-.18763-.43295l-.17824-.0618.1312-.0504c.22915-.088.71027-.13576.95765-.095.44112.0727.62092.18797.6302.40396.004.0942.014.0803.0431-.0604.0543-.26249.0514-1.10179-.005-1.41976-.21599-1.219398-.9987-2.340228-2.06528-2.957428-.38361-.22198-1.03293-.45577-1.40568-.506101l-.20565-.0278.23861.101931c.60557.25868.90212.64551.90327 1.17827.00052.2564-.0248.35097-.17666.65817-.32641.66045-1.07839 1.282949-1.84921 1.530798l-.3097.0996-.46943-.27714c-.25819-.152428-.47491-.277139-.48162-.277139-.007 0-.0502.0874-.0966.19423-.0465.106829-.0887.200799-.0939.208839-.0253.0391-.38703-.18698-.47198-.294968-.13782-.17521-.15862-.30596-.0746-.46855.16112-.31156.85159-.50323 1.59078-.4416.21994.0183.39989.0503.39989.071 0 .0208-.0954.12173-.21209.2244-.18865.16606-.23789.18677-.44559.18737-.37288.001-.63404.18857-.30621.219839.0857.008.24795-.0203.36061-.0634.26046-.0995.86314-.66428.97231-.91122.15735-.35592-.0184-.61697-.4153-.61697-.28032 0-.34034.0701-.30385.35482l.0277.21644-.24523-.259659c-.29726-.314751-.48023-.672831-.51476-1.00741-.0256-.248151-.0249-.250021.14226-.353311.25375-.15682.16566-.16147-.20949-.011-1.35232.54226-2.31279 1.68879-2.60747 3.112599-.12783.61766-.0969 1.45737.075 2.034061.1214.40737.24348.69285.17749.41506-.0563-.23692-.0289-.767301.0489-.946601.10082-.23238.32748-.48065.5359-.58698.31923-.16286.97617-.19184 1.4802-.0653.41628.10451 1.077.46682 1.45241.79643l.16998.14924v.520831.52083h.22279c.21156 0 .2242.007.25054.1387.0729.36471-.14565.77532-.41276.77532-.40028 0-1.00183-.66579-1.29037-1.42816-.057-.15053-.0515-.1511.30264-.0315.21512.0726.28501.11883.30592.20213.0361.14369.28603.38923.39625.38923.11367 0 .11078-.0442-.0149-.22915-.20174-.29677-.92718-.59347-1.45105-.59347-.18902 0-.25468.0221-.35034.11773-.10124.10123-.11449.14646-.0946.32275.0249.22126.17576.42784.31236.42784.044 0 .14633-.0559.22748-.12416l.14756-.12415-.0329.18128c-.0764.42034-.36081.89148-.67612 1.1199-.17542.12707-.18873.12966-.31945.062-.24473-.12655-.18465-.0337.1326.20501.56736.42683 1.32035.73196 2.03595.82499.44144.0574.61702.0539 1.0816-.0214zm-.6817-2.98385c0-.671292.001-.678572.11912-.788342.0655-.0609.17604-.20989.24561-.331.14802-.25766.1579-.24134.2105.3475.0296.33163.0246.36343-.0739.46825-.0581.0619-.0919.126211-.0751.143022.0168.0168.1088-.0517.20442-.152202l.17386-.18276.0517.435161c.0466.391831.0441.44104-.0252.49414-.12394.0949-.54866.243781-.69566.243781h-.13539zm-.38605-1.000002c-.43485-.18469-.46794-.20969-.50582-.38215-.0162-.0737-.0483-.13395-.0715-.13395-.0568 0-.0534.0394.026.30122.0374.12339.0683.23116.0686.2395.00035.008-.0709-.029-.15825-.083-.0873-.054-.26725-.13621-.39988-.18278-.24024-.0844-.24119-.0855-.25516-.29631-.0138-.20755.0945-.683639.16545-.727469.0198-.0122.28841.125539.59692.306149.55742.32635.56158.33004.66693.5918.0583.14487.14068.31632.18306.381.0424.0647.0703.12269.062.12891-.008.006-.17851-.0581-.37827-.14296zm.66409-.48875-.33892-.0506.34623-.26059c.32279-.24296.35644-.25767.49703-.21735.0829.0238.16818.0259.18942.005.0347-.0347-.20923-.11888-.44469-.15357-.0693-.0102-.0373-.0469.13974-.160559.12628-.081.27826-.19914.33775-.262459.13398-.14262.15168-.14254.39813.002l.19969.117029-.17439.19812c-.0959.108969-.23306.308229-.30476.442809-.14773.2773-.28149.40525-.41491.39688-.0503-.003-.24391-.0285-.43032-.0563z" stroke-width=".045701" style="fill: rgb(65, 65, 65);"/>
    <path d="m149.74805 130.4082c-1.11106.00164-2.17727.07484-3.05078.22657-4.16909.72412-8.00896 2.80884-10.98243 5.96093-3.31828 3.51753-5.30255 8.53605-5.30664 13.4043h3.64063c-.00141-1.12703.09048-2.24002.29101-3.20898 1.11375-5.38133 4.74239-9.71614 9.85352-11.76563 1.41789-.5687 1.75202-.54974.79297.04297-.63179.39039-.63582.39609-.53906 1.33398.1305 1.26455.82376 2.61899 1.94726 3.8086l.92578.98047-.10547-.81641c-.13791-1.07611.08896-1.3418 1.14844-1.3418.81664 0 1.38377.29388 1.63672.77735v-9.39844c-.08366-.00068-.16873-.00403-.25195-.00391zm.25195 10.78907c-.0207.05563-.04122.111-.06641.16796-.41261.93332-2.68941 3.0673-3.67382 3.44336-.42581.1629-1.03938.27047-1.36329.24024-1.23904-.11819-.25306-.82825 1.15625-.83203.78501-.00227.97254-.07941 1.68555-.70703.44103-.38805.80078-.76905.80078-.84766 0-.07824-.68045-.20037-1.51172-.26953-2.79379-.23293-5.40276.49237-6.01172 1.66992-.31755.61451-.23964 1.10732.28126 1.76953.32107.40814 1.68953 1.26302 1.78515 1.11524.01965-.03039.17777-.3853.35352-.78907.17537-.40376.33877-.73437.36523-.73437.02536 0 .84448.47272 1.82031 1.04883l1.77539 1.04687 1.16993-.37695c.48233-.15509.96213-.35118 1.43359-.57813zm-6.15625 4.85156c-.26816.16565-.67716 1.96556-.625 2.75.0528.79676.05685.80015.96484 1.11914.06664.0234.14118.05444.21289.08203h1.63086c-.2936-.96975-.30487-1.12109-.09179-1.12109.08768 0 .2083.2273.26953.50586.0605.27545.12492.45123.29492.61523h2.36719c-.08496-.18667-.17243-.37359-.2461-.55664-.39817-.98933-.4147-1.00483-2.52148-2.23828-1.16602-.68262-2.18103-1.20236-2.25586-1.15625zm6.15625 2.25-.6543.49219.6543.09765zm-9.19141 1.41015c-.97219-.02289-1.91569.07832-2.64648.29102h4.91797c-.70991-.17658-1.49864-.27282-2.27149-.29102z" stroke-width=".172728" transform="scale(.26458333)" style="fill: rgb(65, 65, 65);"/>
    <path d="m0 130.41016v9.40039c.19202516.36702.20202128.8438 0 1.38672v5.36718c2.3761617-1.1438 4.525262-3.12411 5.5546875-5.20703.5739591-1.16107.6699341-1.51921.6679687-2.48828-.0043464-2.01358-1.1252941-3.47544-3.4140624-4.45312l-.9023438-.38477.7773438.10547c1.4088187.19023 3.8645885 1.07313 5.3144531 1.91211 4.0311681 2.33272 6.9883471 6.56898 7.8046871 11.17773.10698.60313.162661 1.7024.166016 2.77344h3.623047c-.004675-2.52835-.481982-5.06668-1.427735-7.41211-2.321801-5.75792-7.17863-10.03641-13.1855464-11.61523-1.3411932-.35256-3.2010778-.54794-4.9785156-.5625zm8.4238281 13.82617c-.7939269.03496-1.7951887.53347-2.8320312 1.57031-1.3171873 1.31719-1.9955283 2.49653-2.28125 4.19336h3.2363281c-.0512894-1.14362.116756-2.14993.5644531-2.52148.6133796-.50831.6096623.89366-.0039062 1.83007-.1236547.18863-.2016513.42206-.234375.69141h1.9355469c.4908983-.80977.7844261-1.49522 1.0488281-2.4043.6355751-2.18624-.1103823-3.41764-1.4335938-3.35937zm-4.4570312.18555c-.1964551-.00099-.3405595.13282-.59375.40234-.2248441.23931-.800065.68604-1.2773438.99219-.6691275.42957-.789265.56887-.5273437.60742.8899275.13111 1.8127902.44893 1.6816406.58008-.0802772.07899-.403474.07042-.7167969-.01953-.5313638-.1524-.6589125-.09601-1.87890622.82226l-.65429688.49219v.58984l.62695312.09375v.00196c.70454178.10507 1.43684288.20155 1.62695308.21289.5042646.03163 1.01001-.45194 1.5683594-1.5.2709922-.50865.787934-1.26198 1.1503906-1.67383l.6601563-.75-.7558594-.44141c-.4657323-.27315-.7137011-.40917-.9101562-.41015zm-2.5664063 5.35742c-.0569237.0083-.128307.08807-.2167968.2207h.3632812c-.0407597-.15737-.0860909-.22952-.1464844-.2207z" stroke-width=".172728" transform="scale(.26458333)" style="fill: rgb(65, 65, 65);"/>
    <path d="m8.9848766 34.882478c-2.42499-.439249-4.24067-2.620269-4.24708-5.101651-.003-1.292738.52293-2.627538 1.4043-3.561828.78673-.833991 1.80268-1.385331 2.90575-1.576921.61631-.10705 1.5966904-.0672 2.1912804.0891 1.58933.41773 2.87435 1.549701 3.48866 3.073151.4548 1.127888.50154 2.424538.12858 3.567069-.70043 2.145701-2.72241 3.595071-4.9911504 3.577691-.29445-.002-.69061-.0322-.88034-.0666zm1.5065404-.913489c1.00732-.163361 1.77728-.55207 2.45848-1.241131.37788-.382239.55477-.640449.2638-.385059-.5896.517469-1.28452.531289-1.78041.0354-.45584-.45585-.68166-1.110159-.68068-1.972301.00086-.83885.15591-1.25677.64872-1.749579.73155-.731549 1.39765-.452199 1.12859.473309-.0996.34245-.21179.56353-.47367.93301l-.21019.29655-.0549-.1823c-.0777-.25774-.0738-.46452.0112-.59418.16234-.24776.16329-.61861.001-.48412-.28195.234-.14823 1.41457.20279 1.790341.21368.228741.5492.161811.70567-.140771.12239-.23667.0771-.34118-.18763-.43295l-.17824-.0618.1312-.0504c.22915-.088.71027-.13576.95765-.095.44112.0727.62092.18797.6302.40396.004.0942.014.0803.0431-.0604.0543-.26249.0514-1.10179-.005-1.41976-.21599-1.219398-.9987-2.340228-2.06528-2.957428-.38361-.22198-1.03293-.45577-1.40568-.506101l-.20565-.0278.23861.101931c.60557.25868.90212.64551.90327 1.17827.00052.2564-.0248.35097-.17666.65817-.32641.66045-1.07839 1.282949-1.8492104 1.530798l-.3097.0996-.46943-.27714c-.25819-.152428-.47491-.277138-.48162-.277138-.007 0-.0502.0874-.0966.194229-.0465.106829-.0887.200799-.0939.208839-.0253.0391-.38703-.18698-.47198-.294968-.13782-.17521-.15862-.30596-.0746-.46855.16112-.31156.85159-.50323 1.59078-.4416.21994.0183.39989.0503.39989.071 0 .0208-.0954.12173-.21209.2244-.18865.16606-.23789.18677-.44559.18737-.37288.001-.63404.18857-.30621.21984.0857.008.24795-.0203.36061-.0634.26046-.0995.86314-.664279.97231-.91122.1573504-.355919-.0184-.616969-.4153-.616969-.28032 0-.34034.0701-.30385.35482l.0277.216439-.24523-.259659c-.29726-.314751-.48023-.672831-.51476-1.00741-.0256-.248151-.0249-.25002.14226-.35331.25375-.156821.16566-.16147-.20949-.011-1.35232.54226-2.31279 1.688791-2.60747 3.112599-.12783.61766-.0969 1.45737.075 2.034061.1214.40737.24348.69285.17749.41506-.0563-.23692-.0289-.767301.0489-.946601.10082-.23238.32748-.48065.5359-.58698.31923-.16286.97617-.19184 1.4802-.0653.41628.10451 1.077.46682 1.45241.79643l.16998.14924v.520831.52083h.22279c.2115604 0 .2242004.007.2505404.1387.0729.36471-.14565.77532-.4127604.77532-.40028 0-1.00183-.66579-1.29037-1.42816-.057-.15053-.0515-.1511.30264-.0315.21512.0726.28501.11883.30592.20213.0361.14369.28603.38923.39625.38923.11367 0 .11078-.0442-.0149-.22915-.20174-.29677-.92718-.59347-1.45105-.59347-.18902 0-.25468.0221-.35034.11773-.10124.10123-.11449.14646-.0946.32275.0249.22126.17576.42784.31236.42784.044 0 .14633-.0559.22748-.12416l.14756-.12415-.0329.18128c-.0764.42034-.36081.89148-.67612 1.1199-.17542.12707-.18873.12966-.31945.062-.24473-.12655-.18465-.0337.1326.20501.56736.42683 1.32035.73196 2.03595.82499.44144.0574.6170204.0539 1.0816004-.0214zm-.6817004-2.983851c0-.671291.001-.678571.11912-.788341.0655-.0609.1760404-.20989.2456104-.331.14802-.25766.1579-.24134.2105.3475.0296.33163.0246.36343-.0739.46825-.0581.0619-.0919.126211-.0751.143021.0168.0168.1088-.0517.20442-.152201l.17386-.18276.0517.435161c.0466.39183.0441.441041-.0252.494141-.12394.0949-.54866.24378-.6956604.24378h-.13539zm-.38605-1.000001c-.43485-.18469-.46794-.20969-.50582-.38215-.0162-.0737-.0483-.13395-.0715-.13395-.0568 0-.0534.0394.026.30122.0374.12339.0683.23116.0686.2395.00035.008-.0709-.029-.15825-.083-.0873-.054-.26725-.13621-.39988-.18278-.24024-.0844-.24119-.0855-.25516-.29631-.0138-.20755.0945-.683638.16545-.727468.0198-.0122.28841.125538.59692.306148.55742.32635.56158.33004.66693.5918.0583.14487.14068.31632.18306.381.0424.0647.0703.12269.062.12891-.008.006-.17851-.0581-.37827-.14296zm.6640904-.48875-.3389204-.0506.3462304-.26059c.32279-.24296.35644-.25767.49703-.21735.0829.0238.16818.0259.18942.005.0347-.0347-.20923-.11888-.44469-.15357-.0693-.0102-.0373-.0469.13974-.160559.12628-.081.27826-.19914.33775-.262459.13398-.14262.15168-.14254.39813.002l.19969.117029-.17439.198121c-.0959.108968-.23306.308228-.30476.442808-.14773.2773-.28149.40525-.41491.39688-.0503-.003-.24391-.0285-.43032-.0563z" stroke-width=".045701" style="fill: rgb(65, 65, 65);"/>
    <path d="m0 55.410156v9.400391c.19202516.36702.20202128.843808 0 1.386719v5.367187c2.3761617-1.143799 4.525262-3.124117 5.5546875-5.207031.5739591-1.161071.6699341-1.519211.6679687-2.488281-.0043464-2.013581-1.1252944-3.475437-3.4140624-4.453125l-.9023438-.384766.7773438.105469c1.4088184.190227 3.8645885 1.07313 5.3144531 1.912109 4.0311681 2.332725 6.9883471 6.568986 7.8046871 11.177734.213166 1.201777.22476 4.373147.019532 5.365235-.109985.531779-.148945.584547-.164063.228515-.035074-.81634-.713634-1.250618-2.380859-1.52539-.93498-.154054-2.753062.024823-3.6191409.357422l-.4960937.191406.6738281.234375c1.0005545.346847 1.1715605.740265.7089845 1.634766-.5913828 1.143617-1.8603594 1.397736-2.6679689.533203-1.3266897-1.420237-1.8312628-5.883169-.765625-6.767578.6133796-.508309.6096623.893662-.0039062 1.830078-.3212599.490053-.3366381 1.271958-.0429688 2.246094l.2089844.689453.7929687-1.121094c.9897827-1.39646 1.4145747-2.233045 1.7910157-3.527344 1.0169201-3.497983-1.5007116-4.553972-4.265625-1.789062-1.8625885 1.862585-2.4479215 3.442824-2.4511719 6.613281-.0037039 3.258489.8494058 5.73218 2.5722656 7.455078 1.8742299 1.874226 4.5001064 1.821023 6.7285154-.134766 1.099729-.965253.432114.010396-.996094 1.455078-2.5746137 2.604326-5.485775 4.073979-9.2929682 4.691407-.915161.148331-1.53369949.221783-2.1523438.228515v3.472657c8.4870775-.026842 16.025293-5.477792 18.650391-13.519532 1.409612-4.318227 1.232601-9.217585-.486329-13.480468-2.321801-5.757922-7.17863-10.036413-13.1855464-11.615235-1.3411931-.35256-3.2010778-.547935-4.9785156-.5625zm3.9667969 14.011719c-.1964551-.000983-.3405597.132826-.59375.402344-.2248441.239316-.800065.686046-1.2773438.992187-.6691275.429578-.789265.568871-.5273437.607422.8899275.131112 1.8127902.448929 1.6816406.580078-.0802772.078992-.403474.070422-.7167969-.019531-.5313638-.152391-.6589125-.096008-1.87890622.822266l-.65429688.492187v.589844l.62695312.09375v.001953c.70454178.105071 1.43684288.201552 1.62695308.212891.5042646.031634 1.0100103-.451937 1.5683594-1.5.2709922-.508649.787934-1.261981 1.1503906-1.673828l.6601563-.75-.7558594-.441407c-.4657323-.273146-.7137012-.409173-.9101562-.410156zm-2.5664063 5.357422c-.0989978.014446-.2355203.234422-.44531248.599609-.26294173.457739-.68212844 1.019827-.92968749 1.25-.0097373.009049-.01606994.01668-.02539063.025391v5.515625h.08789063c.55559055 0 2.16047157-.563198 2.62890627-.921875.2619212-.200693.2718291-.386255.0957031-1.867188l-.1953125-1.644531-.6582031.691406c-.3613985.379847-.7079883.637715-.7714844.574219-.0634961-.063534.0636126-.307063.2832031-.541015.3722835-.396171.3911709-.516127.2792969-1.769532-.124252-1.39096-.1846131-1.936187-.3496094-1.912109zm-1.4003906 7.736328v3.300781c.73895652-.422728 1.2435532-1.656589 1.0195312-2.777344-.09955271-.497763-.14766872-.523437-.94726557-.523437z" stroke-width=".172728" transform="scale(.26458333)" style="fill: rgb(65, 65, 65);"/>
    <path d="m28.828627 15.038728c-2.42499-.439249-4.24067-2.620269-4.24708-5.1016513-.003-1.292738.52293-2.627538 1.4043-3.561828.78673-.833991 1.80268-1.385331 2.90575-1.576921.61631-.10705 1.59669-.0672 2.19128.0891 1.58933.41773 2.87435 1.549701 3.48866 3.073151.4548 1.127888.50154 2.4245383.12858 3.5670693-.70043 2.145701-2.72241 3.595071-4.99115 3.577691-.29445-.002-.69061-.0322-.88034-.0666zm1.50654-.913489c1.00732-.163361 1.77728-.55207 2.45848-1.241131.37788-.382239.55477-.640449.2638-.385059-.5896.517469-1.28452.531289-1.78041.0354-.45584-.45585-.68166-1.110159-.68068-1.972301.00086-.8388503.15591-1.2567703.64872-1.7495793.73155-.731549 1.39765-.452199 1.12859.473309-.0996.34245-.21179.56353-.47367.9330103l-.21019.29655-.0549-.1823c-.0777-.25774-.0738-.4645203.0112-.5941803.16234-.24776.16329-.61861.001-.48412-.28195.234-.14823 1.4145703.20279 1.7903413.21368.228741.5492.161811.70567-.140771.12239-.23667.0771-.34118-.18763-.43295l-.17824-.0618.1312-.0504c.22915-.088.71027-.13576.95765-.095.44112.0727.62092.18797.6302.40396.004.0942.014.0803.0431-.0604.0543-.26249.0514-1.1017903-.005-1.4197603-.21599-1.219398-.9987-2.340228-2.06528-2.957428-.38361-.22198-1.03293-.45577-1.40568-.506101l-.20565-.0278.23861.101931c.60557.25868.90212.64551.90327 1.17827.00052.2564-.0248.35097-.17666.65817-.32641.66045-1.07839 1.282949-1.84921 1.530798l-.3097.0996-.46943-.27714c-.25819-.152428-.47491-.277138-.48162-.277138-.007 0-.0502.0874-.0966.194229-.0465.106829-.0887.200799-.0939.208839-.0253.0391-.38703-.18698-.47198-.294968-.13782-.17521-.15862-.30596-.0746-.46855.16112-.31156.85159-.50323 1.59078-.4416.21994.0183.39989.0503.39989.071 0 .0208-.0954.12173-.21209.2244-.18865.16606-.23789.18677-.44559.18737-.37288.001-.63404.18857-.30621.21984.0857.008.24795-.0203.36061-.0634.26046-.0995.86314-.664279.97231-.91122.15735-.355919-.0184-.616969-.4153-.616969-.28032 0-.34034.0701-.30385.35482l.0277.216439-.24523-.259659c-.29726-.314751-.48023-.672831-.51476-1.00741-.0256-.248151-.0249-.25002.14226-.35331.25375-.156821.16566-.16147-.20949-.011-1.35232.54226-2.31279 1.688791-2.60747 3.112599-.12783.61766-.0969 1.4573703.075 2.0340613.1214.40737.24348.69285.17749.41506-.0563-.23692-.0289-.767301.0489-.946601.10082-.23238.32748-.48065.5359-.5869803.31923-.16286.97617-.19184 1.4802-.0653.41628.1045103 1.077.4668203 1.45241.7964303l.16998.14924v.520831.52083h.22279c.21156 0 .2242.007.25054.1387.0729.36471-.14565.77532-.41276.77532-.40028 0-1.00183-.66579-1.29037-1.42816-.057-.15053-.0515-.1511.30264-.0315.21512.0726.28501.11883.30592.20213.0361.14369.28603.38923.39625.38923.11367 0 .11078-.0442-.0149-.22915-.20174-.29677-.92718-.59347-1.45105-.59347-.18902 0-.25468.0221-.35034.11773-.10124.10123-.11449.14646-.0946.32275.0249.22126.17576.42784.31236.42784.044 0 .14633-.0559.22748-.12416l.14756-.12415-.0329.18128c-.0764.42034-.36081.89148-.67612 1.1199-.17542.12707-.18873.12966-.31945.062-.24473-.12655-.18465-.0337.1326.20501.56736.42683 1.32035.73196 2.03595.82499.44144.0574.61702.0539 1.0816-.0214zm-.6817-2.983851c0-.671291.001-.678571.11912-.788341.0655-.0609.17604-.20989.24561-.331.14802-.2576603.1579-.2413403.2105.3475.0296.33163.0246.36343-.0739.46825-.0581.0619-.0919.126211-.0751.143021.0168.0168.1088-.0517.20442-.152201l.17386-.18276.0517.435161c.0466.39183.0441.441041-.0252.494141-.12394.0949-.54866.24378-.69566.24378h-.13539zm-.38605-1.000001c-.43485-.1846903-.46794-.2096903-.50582-.3821503-.0162-.0737-.0483-.13395-.0715-.13395-.0568 0-.0534.0394.026.30122.0374.1233903.0683.2311603.0686.2395003.00035.008-.0709-.029-.15825-.083-.0873-.054-.26725-.1362103-.39988-.1827803-.24024-.0844-.24119-.0855-.25516-.29631-.0138-.20755.0945-.683638.16545-.727468.0198-.0122.28841.125538.59692.306148.55742.32635.56158.33004.66693.5918.0583.14487.14068.3163203.18306.3810003.0424.0647.0703.12269.062.12891-.008.006-.17851-.0581-.37827-.14296zm.66409-.4887503-.33892-.0506.34623-.26059c.32279-.24296.35644-.25767.49703-.21735.0829.0238.16818.0259.18942.005.0347-.0347-.20923-.11888-.44469-.15357-.0693-.0102-.0373-.0469.13974-.160559.12628-.081.27826-.19914.33775-.262459.13398-.14262.15168-.14254.39813.002l.19969.117029-.17439.198121c-.0959.108968-.23306.308228-.30476.442808-.14773.2773-.28149.40525-.41491.39688-.0503-.003-.24391-.0285-.43032-.0563z" stroke-width=".045701" style="fill: rgb(65, 65, 65);"/>
    <path d="m130.4082 0c-.00001.01889176-.00199.03775352-.00195.05664063.02423 9.37845167 6.88742 17.62304937 16.05273 19.28320337.71709.130015 2.21329.244394 3.32618.251953.07189.000551.14308-.003679.21484-.003906v-3.472657c-.56833.006185-1.13669-.044563-1.93555-.148437-2.70463-.35161-5.55096-1.503972-7.69531-3.117188-1.19905-.902211-1.42692-1.253689-.50195-.77539.49406.255723.54598.245889 1.20898-.234375 1.19172-.86332 2.26593-2.6437355 2.55469-4.2324221l.125-.6855469-.55859.46875c-.30671.2579906-.69308.4707031-.85938.4707031-.51628 0-1.08558-.7809292-1.17969-1.6171875-.07517-.6662929-.02521-.8381015.35742-1.2207031.36155-.3614362.60982-.4453125 1.32422-.4453125 1.97998 0 4.71994 1.1224902 5.48243 2.2441406.47501.6990236.48626.8652344.05664.8652344-.41658 0-1.35966-.9276228-1.4961-1.4707031-.07903-.3148347-.3432-.4892782-1.15625-.7636719-1.33848-.4520315-1.35996-.4497917-1.14453.1191406 1.09055 2.8813985 3.36409 5.3964844 4.87695 5.3964844.18872 0 .37112-.055153.54102-.152344v-3.300781h-.76953v-1.96875-1.96875l-.64258-.5644531c-1.41887-1.2457701-3.91689-2.61476722-5.49023-3.00976565-.00576-.00144524-.01181-.00247174-.01758-.00390625h-4.91797c-.24532.0713993-.46869.15331487-.6582.25-.78773.40187717-1.64434 1.3404634-2.02539 2.21875-.29405.6776693-.39834 2.6826793-.18555 3.578125.24941 1.049915-.21109-.0286932-.66992-1.5683594-.38008-1.2750976-.57815-2.8900467-.58008-4.4785156zm13.98828 0c.46777.17996946 1.01274.43240974 1.29883.609375.33014.20409449.59898.34273622.59766.3125-.00114-.03152126-.11841-.43794097-.25977-.90429687-.00224-.00738713-.00365-.01028441-.00586-.01757813zm2.10352 0c.23228.22408391.6682.42702428 1.61719.83007812.755.32073068 1.39945.56173968 1.42969.53906248.03137-.0235086-.07413-.2417927-.23438-.4863281-.10681-.16301576-.27977-.51035741-.44922-.8828125zm3.5 1.6542969c-.41802.3906488-.42383.4732535-.42383 2.9550781v2.5605469h.42383z" stroke-width=".172728" transform="scale(.26458333)" style="fill: rgb(65, 65, 65);"/>
    <path d="m149.74805 55.408203c-1.11106.00164-2.17727.074838-3.05078.226563-4.16909.724119-8.00896 2.808845-10.98243 5.960937-3.33116 3.531175-5.31993 8.574999-5.30859 13.460938.02423 9.378451 6.88742 17.623049 16.05273 19.283203.71709.130015 2.21329.244394 3.32618.251953.07189.000551.14308-.003679.21484-.003906v-3.472657c-.56833.006185-1.13669-.044563-1.93555-.148437-2.70463-.35161-5.55096-1.503972-7.69531-3.117188-1.19905-.902211-1.42692-1.253689-.50195-.77539.49406.255723.54598.245889 1.20898-.234375 1.19172-.86332 2.26593-2.643736 2.55469-4.232422l.125-.685547-.55859.46875c-.30671.257991-.69308.470703-.85938.470703-.51628 0-1.08558-.780929-1.17969-1.617187-.07517-.666293-.02521-.838102.35742-1.220703.36155-.361437.60982-.445313 1.32422-.445313 1.97998 0 4.71994 1.12249 5.48243 2.244141.47501.699023.48626.865234.05664.865234-.41658 0-1.35966-.927623-1.4961-1.470703-.07903-.314835-.3432-.489278-1.15625-.763672-1.33848-.452031-1.35996-.449792-1.14453.119141 1.09055 2.881398 3.36409 5.396484 4.87695 5.396484.18872 0 .37112-.055153.54102-.152344v-3.300781h-.76953v-1.96875-1.96875l-.64258-.564453c-1.41887-1.24577-3.91689-2.614767-5.49023-3.009766-1.905-.478261-4.38722-.36944-5.59375.246094-.78773.401877-1.64434 1.340463-2.02539 2.21875-.29405.677669-.39834 2.682679-.18555 3.578125.24941 1.049915-.21109-.028693-.66992-1.568359-.6497-2.17962-.76634-5.353037-.28321-7.6875 1.11375-5.381322 4.74239-9.716139 9.85352-11.765625 1.41789-.568706 1.75202-.549741.79297.042968-.63179.390388-.63582.396091-.53906 1.333985.1305 1.26455.82376 2.618983 1.94726 3.808594l.92578.980468-.10547-.816406c-.13791-1.076107.08896-1.341797 1.14844-1.341797.81664 0 1.38377.293874 1.63672.777344v-9.400391c-.08396-.000688-.16843-.002076-.25195-.001953zm.25195 10.789063c-.0207.055631-.04122.111003-.06641.167968-.41261.933321-2.68941 3.067297-3.67382 3.44336-.42581.162897-1.03938.27047-1.36329.240234-1.23904-.118186-.25306-.828252 1.15625-.832031.78501-.002268.97254-.079403 1.68555-.707031.44103-.388044.80078-.769042.80078-.847657 0-.078236-.68045-.200366-1.51172-.269531-2.79379-.232932-5.40276.492372-6.01172 1.669922-.31755.614513-.23964 1.10732.28126 1.769531.32107.408144 1.68953 1.263014 1.78515 1.115235.01965-.030388.17777-.3853.35352-.789063.17537-.403763.33877-.734375.36523-.734375.02536 0 .84448.472722 1.82031 1.048828l1.77539 1.046875 1.16993-.376953c.48233-.155091.96213-.351182 1.43359-.578125zm-6.13086 4.849609c-.01183-.001447-.02071-.000929-.02539.001953-.26816.165657-.67716 1.965559-.625 2.75.0528.796762.05685.800149.96484 1.119141.50128.176012 1.18177.487312 1.51172.691406.33014.204094.59898.342736.59766.3125-.00114-.031521-.11841-.437941-.25977-.904297-.30009-.989556-.31233-1.138672-.09765-1.138672.08768 0 .2083.227308.26953.50586.14317.651817.26858.747271 1.91211 1.445312.755.320731 1.39945.56174 1.42969.539063.03137-.023509-.07413-.241793-.23438-.486329-.16018-.244459-.47106-.891912-.69141-1.439453-.39817-.989329-.4147-1.004832-2.52148-2.238281-1.09315-.639957-2.053-1.136504-2.23047-1.158203zm6.13086 2.251953-.6543.492188.6543.097656zm0 3.355469c-.41802.390649-.42383.473253-.42383 2.955078v2.560547h.42383z" stroke-width=".172728" transform="scale(.26458333)" style="fill: rgb(65, 65, 65);"/>
    <path d="m74.748047 130.4082c-1.111059.00164-2.177271.07484-3.050781.22657-4.169084.72412-8.008955 2.80884-10.982422 5.96093-3.318263 3.5175-5.304476 8.53608-5.308594 13.4043h3.636719c-.001371-1.12682.096377-2.2402.296875-3.20898 1.113751-5.38133 4.742385-9.71614 9.853515-11.76563 1.41789-.5687 1.752024-.54974.792969.04297-.631786.39039-.635818.39609-.539062 1.33398.130507 1.26455.823763 2.61899 1.947265 3.8086l.925781.98047-.105468-.81641c-.137915-1.07611.08896-1.3418 1.148437-1.3418 1.500095 0 2.165021.98683 1.570313 2.33203-.412611.93332-2.689413 3.0673-3.673828 3.44336-.425802.1629-1.039376.27047-1.363282.24024-1.239042-.11819-.25306-.82825 1.15625-.83203.785008-.00227.972539-.07941 1.685547-.70703.441033-.38805.800781-.76905.800781-.84766 0-.07824-.680449-.20037-1.511718-.26953-2.793789-.23293-5.402762.49237-6.011719 1.66992-.317556.61451-.239644 1.10732.28125 1.76953.321071.40814 1.689534 1.26302 1.785156 1.11524.019654-.03039.177768-.3853.353516-.78907.17537-.40376.338778-.73437.365234-.73437.025361 0 .844477.47272 1.820313 1.04883l1.77539 1.04687 1.169922-.37695c2.913336-.93675 5.754606-3.28897 6.988282-5.78516.573959-1.16107.669934-1.51921.667968-2.48828-.004346-2.01358-1.125294-3.47544-3.414062-4.45312l-.902344-.38477.777344.10547c1.408819.19023 3.864588 1.07313 5.314453 1.91211 4.031168 2.33272 6.988347 6.56898 7.804687 11.17773.10698.60313.162661 1.7024.166016 2.77344h3.623047c-.004675-2.52835-.481982-5.06668-1.427735-7.41211-2.321801-5.75792-7.17863-10.03641-13.185546-11.61523-1.404544-.36922-3.378705-.56719-5.230469-.56446zm8.675781 13.82813c-.793927.03496-1.795189.53347-2.832031 1.57031-1.317188 1.31719-1.995528 2.49653-2.28125 4.19336h3.236328c-.051289-1.14362.116756-2.14993.564453-2.52148.61338-.50831.609662.89366-.003906 1.83007-.123655.18863-.201651.42206-.234375.69141h1.935547c.490898-.80977.784426-1.49522 1.048828-2.4043.635575-2.18624-.110382-3.41764-1.433594-3.35937zm-4.457031.18555c-.196455-.00099-.34056.13282-.59375.40234-.224844.23931-.800065.68604-1.277344.99219-.669127.42957-.789265.56887-.527344.60742.889928.13111 1.812791.44893 1.681641.58008-.080277.07899-.403474.07042-.716797-.01953-.531364-.1524-.658912-.09601-1.878906.82226l-1.308594.98438 1.28125.1914v.00196c.704542.10507 1.436843.20155 1.626953.21289.504265.03163 1.01001-.45194 1.56836-1.5.270992-.50865.787934-1.26198 1.15039-1.67383l.660156-.75-.755859-.44141c-.465732-.27315-.713701-.40917-.910156-.41015zm-10.097656 1.625c-.011832-.00145-.020714-.00093-.025391.00195-.268157.16565-.677157 1.96556-.625 2.75.0528.79676.05685.80015.964844 1.11914.066632.0234.14118.05444.21289.08203h1.63086c-.293601-.96975-.304872-1.12109-.091797-1.12109.087685 0 .208303.2273.269531.50586.06046.27526.119341.45133.289063.61523h2.36914c-.084658-.18608-.168777-.37422-.242187-.55664-.398173-.98933-.4147-1.00483-2.521485-2.23828-1.093145-.63996-2.053001-1.13651-2.230468-1.1582zm-3.447266 3.66015c-.833454.00827-1.626588.10868-2.259766.29297h4.917969c-.829189-.20625-1.765022-.30183-2.658203-.29297zm10.978516.07227c-.056924.0083-.128307.08807-.216797.2207h.363281c-.04076-.15737-.086091-.22952-.146484-.2207z" stroke-width=".172728" transform="scale(.26458333)" style="fill: rgb(65, 65, 65);"/>
    <path d="m55.40625 0c-.000016.01892413-.000044.03772116 0 .05664063.024227 9.37845167 6.887418 17.62304937 16.052734 19.28320337.71709.130015 2.21329.244394 3.326172.251953 8.574766.065688 16.21794-5.413702 18.865235-13.5234376.634046-1.9423464.947182-4.0013659.943359-6.0683594h-3.625c.003331 1.0630986-.044252 2.097599-.146484 2.5917969-.109985.5317795-.148945.5845471-.164063.2285156-.035074-.8163402-.713634-1.250619-2.380859-1.5253906-.93498-.1540536-2.753062.0248234-3.619141.3574219l-.496094.1914062.673829.234375c1.000554.3468472 1.17156.7402648.708984 1.6347656-.591383 1.1436171-1.860359 1.3977361-2.667969.5332032-.769319-.8235652-1.259285-2.6675925-1.330078-4.2460938h-3.236328c-.118308.70260013-.16897 1.4915517-.169922 2.4199219-.003704 3.2584895.849406 5.7321805 2.572266 7.4550781 1.87423 1.874226 4.500106 1.821023 6.728515-.1347656 1.099729-.9652536.432114.0103953-.996094 1.4550776-2.574614 2.604326-5.485775 4.073979-9.292968 4.691407-1.755893.284598-2.419456.297023-4.087891.080078-2.70463-.35161-5.55096-1.503972-7.695312-3.117188-1.199055-.902211-1.426917-1.253689-.501953-.77539.494059.255723.545979.245889 1.208984-.234375 1.191723-.86332 2.265931-2.6437355 2.554687-4.2324221l.125-.6855469-.558593.46875c-.306709.2579906-.693076.4707031-.859375.4707031-.516284 0-1.085578-.7809292-1.179688-1.6171875-.075175-.6662929-.025217-.8381015.357422-1.2207031.36155-.3614362.609812-.4453125 1.324219-.4453125 1.979981 0 4.71994 1.1224902 5.482422 2.2441406.475011.6990236.486259.8652344.05664.8652344-.416579 0-1.359653-.9276228-1.496094-1.4707031-.079029-.3148347-.343198-.4892782-1.15625-.7636719-1.338481-.4520315-1.359964-.4497917-1.144531.1191406 1.090545 2.8813985 3.364084 5.3964844 4.876953 5.3964844 1.00955 0 1.836075-1.551256 1.560547-2.9296875-.099553-.4977638-.147669-.5234375-.947265-.5234375h-.841797v-1.96875-1.96875l-.642578-.5644531c-1.418873-1.2457701-3.916893-2.61476722-5.490235-3.00976565-.005756-.00144524-.011811-.00247174-.017578-.00390625h-4.917969c-.245314.0713993-.468685.15331487-.658203.25-.787729.40187717-1.644338 1.3404634-2.02539 2.21875-.294048.6776693-.398335 2.6826793-.185547 3.578125.249411 1.049915-.211087-.0286932-.669922-1.5683594-.380081-1.2750976-.578146-2.8900467-.580078-4.4785156zm13.990234 0c.467768.17996946 1.012735.43240974 1.298828.609375.330142.20409449.59898.34273622.597657.3125-.001134-.03152126-.118412-.43794097-.259766-.90429687-.00224-.00738713-.003651-.01028441-.005859-.01757813zm2.097657 0c.232179.22422146.673576.42681798 1.623047.83007812.754998.32073068 1.399451.56173968 1.429687.53906248.03137-.0235086-.074123-.2417927-.234375-.4863281-.106812-.16301576-.27977-.51035741-.449219-.8828125zm4.689453 0c-.065406.09803194-.139354.2237016-.228516.37890625-.262942.45773858-.682128 1.01982675-.929687 1.24999995-.446438.4148788-.449219.4433059-.449219 2.9804688v2.5605469h.511719c.55559 0 2.160471-.5631979 2.628906-.921875.261921-.2006929.271829-.3862552.095703-1.8671875l-.195312-1.6445313-.658204.6914063c-.361398.3798463-.707988.6377148-.771484.5742187-.063496-.0635338.063613-.3070628.283203-.5410156.372284-.3961701.391171-.5161265.279297-1.7695313-.078772-.88182793-.132528-1.41883438-.203125-1.6914062zm5.689453 0c-.052294.43043556.010772.95550217.191406 1.5546875l.208985.6894531.792968-1.1210937c.294586-.41562419.534172-.77990946.742188-1.1230469z" stroke-width=".172728" transform="scale(.26458333)" style="fill: rgb(65, 65, 65);"/>
  </g>
</svg>